<svg width="20" height="20" viewBox="0 0 20 20" fill="none" xmlns="http://www.w3.org/2000/svg">
<path d="M14.744 9.1625C15.119 9.9125 15.3127 10.7188 15.3127 11.5625C15.3127 14.4937 12.9315 16.875 10.0002 16.875C7.06898 16.875 4.68773 14.4937 4.68773 11.5625C4.68773 8.63125 7.06898 6.25 10.0002 6.25C10.044 6.25 10.1502 6.25 10.2627 6.2875C10.4752 6.35625 10.6315 6.5375 10.6752 6.75625C10.9377 8.0125 12.0565 8.93125 13.344 8.93125C13.5815 8.93125 13.8127 8.9 14.0127 8.84375C14.3065 8.7625 14.6065 8.9 14.744 9.1625ZM10.0002 3.125C5.72523 3.125 1.34398 6.875 0.631479 11.1438C0.575229 11.4812 0.806479 11.8062 1.14398 11.8625C1.48148 11.9187 1.80648 11.6875 1.86273 11.35C2.41898 8.05625 6.01273 4.375 10.0002 4.375C13.9877 4.375 17.5815 8.05625 18.1315 11.35C18.1815 11.6562 18.4502 11.875 18.7502 11.875C18.7815 11.875 18.819 11.875 18.8565 11.8687C19.194 11.8125 19.4252 11.4875 19.369 11.15C18.6565 6.875 14.2752 3.125 10.0002 3.125Z" fill="#323C47"/>
</svg>
