<svg width="345" height="96" viewBox="0 0 345 96" fill="none" xmlns="http://www.w3.org/2000/svg">
<path fill-rule="evenodd" clip-rule="evenodd" d="M518.998 54.4631C516.914 55.2736 514.714 55.8525 513.44 58.0525C512.977 58.8631 507.303 58.8631 506.145 58.1683C505.682 57.821 505.335 57.5894 504.756 57.1262C504.64 58.3999 504.64 59.442 503.482 60.021C502.788 60.3683 502.672 61.1789 503.019 61.8736C503.366 62.5683 503.945 62.9157 504.756 62.7999C506.261 62.5683 507.651 62.4526 509.156 63.0315C483.103 65.6947 456.819 67.1999 430.766 69.8631C430.766 70.4806 430.805 71.0596 430.882 71.5999C456.587 69.6315 482.409 67.8947 508.23 67.3157C507.072 68.0104 505.798 68.5894 504.409 68.7052C495.145 69.2841 485.882 69.6315 476.735 70.6736C466.661 71.8315 456.587 72.4104 446.514 73.221C441.303 73.5683 436.093 73.9157 430.882 73.6841C428.451 73.5683 426.83 74.842 427.061 77.8526C429.608 76.9262 432.156 78.1999 434.703 76.9263C435.166 76.5789 436.44 76.9263 436.903 77.3894C437.482 77.9684 436.672 78.6631 436.208 79.4736C438.293 79.1262 440.493 79.7052 441.766 77.2736C442.229 76.3473 442.809 77.2736 443.272 77.621C444.43 78.5473 445.587 79.9368 446.514 77.1578C447.093 75.7683 448.482 76.6947 449.64 76.8105C451.377 77.042 453.577 79.4736 454.619 75.7684C454.966 74.7263 456.124 75.7683 456.472 76.6947C456.819 77.5052 456.008 78.8947 457.861 78.7789C459.019 78.6631 459.598 78.7789 459.714 76.9263C459.83 75.3052 462.377 74.2631 464.577 75.3052C467.24 76.6946 469.556 75.8841 471.872 74.4947C472.682 73.9157 473.145 74.1473 473.377 75.0736C473.956 77.9684 476.619 79.2421 479.514 78.0842C480.093 77.8526 480.556 77.042 481.366 77.5052C479.977 79.2421 478.472 80.0526 476.156 79.3578C475.114 79.0104 473.609 79.7052 473.956 80.8631C475.114 84.221 472.335 84.1052 470.945 84.1052C469.556 84.1052 469.093 84.221 468.514 85.3789C467.819 86.7684 466.43 86.7684 465.04 86.7684C462.609 86.6526 460.177 86.7683 457.861 87.4631C454.851 88.5052 451.608 87.6947 448.598 87.5789C446.166 87.4631 443.272 90.0105 441.187 86.6526C440.956 86.3052 441.072 87.8105 440.261 87.8105C440.145 87.6947 440.03 87.4631 440.145 87.3473C440.493 86.421 440.493 85.2631 439.451 85.0315C438.408 84.9157 438.987 86.6525 437.945 86.8841C438.987 89.3157 437.135 88.3894 436.093 88.5052C435.166 88.5824 434.279 88.7368 433.43 88.9684C432.503 89.3157 432.503 88.3894 432.156 88.042C431.808 87.5789 432.272 86.8841 432.619 86.8841C434.472 86.8841 434.587 86.0736 433.661 84.7999C432.503 83.4105 431.693 83.9894 430.766 85.0315C430.535 85.2631 430.303 85.3789 430.303 85.3789C429.145 80.8631 424.745 84.221 422.545 82.3683C423.472 80.9789 424.63 82.3684 425.672 82.021C423.703 80.1684 421.272 80.2841 419.766 82.7157C418.84 84.3368 417.798 85.1473 415.945 85.0315C415.714 85.0315 415.366 85.1473 415.135 85.1473C415.829 87.6947 414.324 87.8105 412.356 88.5052C411.082 88.8526 411.314 89.5473 410.619 88.042C410.387 87.5789 410.04 86.9999 409.693 86.9999C408.882 87.1157 409.229 87.5789 409.345 88.1578C409.577 88.7368 409.461 88.7368 408.882 88.3894C405.872 86.6526 402.398 86.5368 399.04 85.9578C395.451 85.3789 392.093 86.9999 388.387 85.9578C386.535 85.4947 383.408 86.1894 381.093 87.4631C379.935 88.2736 379.703 87.2315 379.472 86.0736C379.24 84.5684 377.851 83.8736 376.924 85.0315C375.072 87.2315 372.524 87.6947 370.208 88.042C367.429 88.621 364.419 87.6947 361.293 88.3894C359.787 88.621 357.356 87.3473 355.272 87.6947C351.335 88.3894 347.398 88.042 343.461 88.1578C337.556 88.2736 331.766 90.0105 325.745 88.7368C323.661 88.3894 321.345 89.6631 319.377 87.4631C319.377 91.8631 314.861 87.5789 314.05 90.4736C314.282 91.0526 314.861 90.821 315.324 90.9368C316.019 91.0526 317.061 90.4736 317.177 91.2841C317.408 92.7894 315.903 91.5157 315.672 91.8631C314.745 93.4842 313.819 95.1052 311.156 94.0631C312.545 92.7894 312.429 91.3999 311.85 89.8947C311.503 89.3157 308.493 89.6631 306.524 90.4736C307.45 91.6315 309.072 92.5578 308.956 94.2947C307.103 95.6842 307.451 91.0526 304.672 93.5999C306.061 91.1684 306.756 89.4315 303.398 89.8947C302.472 90.0105 301.314 88.5052 300.387 87.5789C299.924 87.2315 300.156 86.5368 300.503 86.1894C300.85 85.6105 301.429 85.7263 302.008 86.1894C304.093 87.4631 304.556 86.3052 304.324 84.5683C304.208 83.7578 304.093 83.2946 304.672 82.8315C303.282 81.9052 306.872 80.2841 304.44 79.9368C303.166 79.821 300.503 78.0841 300.272 81.7894C300.156 83.1789 297.377 83.4105 296.914 82.1368C295.408 78.3157 292.05 79.821 289.619 79.821C286.956 79.7052 284.177 80.8631 281.745 82.2525C282.208 82.8315 282.787 82.8315 283.25 82.5999C284.177 82.021 285.103 81.5578 285.914 82.4841C286.956 83.642 285.798 84.221 285.335 85.1473C284.987 85.9578 283.366 87.5789 286.377 86.7684C287.187 86.6526 288.461 88.8526 289.966 87.2315C290.198 86.8842 290.545 86.6526 290.429 86.1894C290.198 85.6105 289.735 86.1894 289.503 86.0736C288.693 85.6105 287.65 85.3789 288.808 83.8736C289.85 82.7157 291.008 82.7157 292.166 82.3683C292.514 82.2525 292.977 83.7578 293.324 84.6841C293.903 86.3052 294.598 88.2736 297.261 87.4631C296.682 88.9683 296.682 90.9368 294.135 89.3157C293.672 88.9684 292.629 89.3157 291.819 89.4315C290.082 89.7789 288.229 90.821 286.608 88.9684C285.914 88.1578 285.682 89.4315 285.45 89.4315C284.524 89.1999 284.872 91.2841 283.829 90.3578C281.282 88.042 278.156 89.7789 275.261 88.9684C273.293 88.3894 270.514 87.8105 268.082 88.2736C266.693 88.5052 265.882 89.4315 264.724 90.4736C264.377 88.8526 263.219 87.3473 265.187 86.5368C266.461 85.9578 267.966 87.4631 269.24 86.5368C267.735 84.9157 262.987 84.1052 261.25 85.1473C259.861 85.9578 260.208 87.6947 259.514 88.8526C259.282 89.3157 259.282 90.4736 258.819 90.2421C255.924 88.7368 252.335 91.5157 250.366 89.8947C248.398 88.2736 248.398 89.8947 247.356 90.0105C246.082 90.242 244.461 91.5157 243.187 89.8947C242.724 89.1999 241.914 90.0105 241.682 90.0105C240.177 89.0841 238.208 92.442 236.819 89.4315C236.703 89.0841 235.545 89.0841 235.314 89.7789C234.503 91.2841 233.114 90.7052 232.187 90.5894C230.914 90.4736 229.871 89.8947 228.945 91.1684C228.714 91.5157 228.135 91.7473 227.903 91.6315C225.124 90.1262 221.998 90.9368 219.219 90.1263C216.671 89.4315 214.124 89.4315 211.577 89.6631C210.303 89.7789 208.798 90.7052 207.177 90.821C206.135 90.9368 207.061 92.4421 206.482 93.1368C206.019 93.7157 205.903 95.221 204.745 93.7157C202.429 90.7052 198.377 90.2421 195.25 92.5578C193.977 93.4842 192.819 93.9473 191.198 94.0631C191.314 93.7157 191.314 93.4841 191.429 93.3683C192.24 92.7894 193.629 93.5999 194.093 92.3262C194.44 91.5157 193.745 90.7052 193.282 90.2421C192.24 89.3157 191.198 90.0105 190.156 90.4736C188.998 91.1684 187.261 91.2842 187.377 93.1368C187.377 93.5999 187.492 94.1789 186.798 94.2947C186.335 94.2947 185.987 93.8315 185.756 93.3683C184.598 90.4736 183.208 88.3894 179.735 90.5894C179.156 90.821 178.808 90.2421 179.156 89.6631C179.966 88.621 178.577 88.2736 178.345 87.4631C178.114 86.421 176.956 85.842 175.682 86.0736C175.103 86.1894 174.64 86.5368 174.756 87.1157C174.987 88.1578 174.408 89.6631 176.261 89.7789C177.303 89.8947 177.65 90.242 176.492 90.9368C176.377 90.9368 176.029 91.0526 175.914 91.1684C175.914 92.3262 176.956 94.2947 174.524 94.0631C172.671 93.8315 173.714 91.8631 173.366 90.7052C172.787 88.8526 172.44 88.621 170.819 89.8947C170.587 90.1262 169.892 90.1263 169.429 90.0105C166.535 89.1999 164.566 90.3578 163.292 92.9052C162.945 93.4841 162.25 93.9473 161.903 93.1368C161.324 92.2105 160.514 92.2104 159.587 92.0947C159.124 91.9789 158.314 92.2105 158.314 91.2841C158.314 90.3578 159.356 90.7052 159.587 90.0105C158.661 89.3157 156.808 89.6631 156.692 87.6947C156.692 86.9999 156.345 87.3473 155.766 87.5789C154.029 88.2736 152.64 89.3157 151.945 91.2841C151.598 91.0526 151.25 90.9368 151.135 90.7052C150.092 89.1999 149.514 84.9157 147.429 90.3578C146.966 91.6315 144.071 91.9789 143.261 90.7052C141.756 88.621 141.408 90.3578 140.598 90.9368C139.787 91.5157 139.092 92.0947 139.903 93.2525C140.829 94.5262 141.64 94.1789 142.566 93.2525C143.029 92.6736 143.608 92.7894 144.187 93.2525C144.419 93.4841 144.766 93.9473 144.303 94.1789C143.377 94.5263 142.566 96.2631 141.871 95.4526C140.366 93.5999 139.556 95.7999 138.629 95.5683C139.208 93.021 138.398 90.5894 136.892 88.8526C135.619 87.4631 135.619 90.0105 135.619 90.0105C136.429 91.0526 135.156 91.1684 134.924 91.6315C134.114 90.242 132.956 92.3262 132.261 91.5157C131.798 90.821 131.913 90.0105 132.261 89.1999C132.84 88.042 135.735 86.5368 137.124 86.3052C140.829 85.6104 144.535 85.4947 148.124 85.7262C151.598 85.9578 154.377 85.3789 157.271 83.9894C158.082 83.642 158.892 84.6841 159.819 84.9157C162.482 85.2631 165.145 82.4841 167.808 85.1473C169.082 86.3052 171.745 85.842 173.482 84.9157C175.798 83.5262 177.882 83.0631 180.314 84.221C181.587 84.7999 182.861 85.4947 183.787 83.7578C184.366 82.8315 185.524 83.0631 185.987 83.2947C187.608 84.4526 189.229 83.8736 190.387 83.2947C193.05 81.9052 196.293 84.1052 198.724 81.7894C198.84 81.7894 198.956 81.7894 199.071 81.7894C200.461 84.7999 203.587 82.1368 205.671 83.7578C206.714 84.5684 208.45 85.0315 210.187 83.5262C211.114 82.7157 213.777 82.2525 215.282 83.5262C217.366 85.1473 219.219 83.642 220.84 83.1789C222.808 82.5999 219.914 81.5578 220.377 80.3999C222.229 80.6315 222.345 82.1368 222.808 83.642C224.893 81.3262 228.019 82.5999 230.219 80.8631C230.566 81.7894 230.335 83.5262 231.261 83.4104C233.577 83.2946 236.008 85.2631 238.324 83.5262C237.861 82.8315 236.819 83.4105 236.587 82.1368C240.756 82.021 245.04 82.4841 249.208 81.7894C249.324 81.7894 249.787 82.1368 249.787 82.3683C250.019 85.0315 252.335 83.8736 253.724 84.3368C254.535 84.5684 256.271 84.3368 254.535 82.7157C254.303 82.4841 254.071 81.6736 254.65 81.0947C254.766 80.9789 255.229 81.0947 255.461 81.0947C254.419 82.7157 256.503 82.5999 256.735 83.5262C257.198 84.5683 257.893 84.6841 257.893 83.9894C258.008 82.1367 259.861 82.8315 260.903 81.9052C259.861 81.442 259.05 80.9789 257.545 80.1684C258.935 80.1684 259.514 80.0526 259.861 80.2841C260.903 80.7473 261.598 80.5157 261.714 79.5894C261.829 78.8947 260.787 78.8947 260.093 78.7789C258.935 78.4315 257.777 78.7789 256.503 79.0105C252.335 79.4736 248.05 80.5157 243.998 78.3157C243.65 78.1999 243.419 77.9683 242.956 78.3157C240.756 80.1683 238.324 80.6315 235.777 79.1263C235.198 78.7789 234.156 77.9683 234.04 78.8947C233.693 81.5578 231.724 80.0526 230.566 80.5157C231.145 79.242 230.335 77.8526 230.45 76.5789C230.566 75.7683 230.219 75.7684 229.756 75.7684C229.293 75.7684 228.829 75.7683 228.598 75.9999C226.629 78.0841 224.198 79.4736 222.114 79.1263C218.061 78.4315 213.893 78.1999 209.956 78.0842C206.714 78.0842 203.471 78.0841 200.114 78.3157C200.229 78.0841 200.229 77.8526 200.345 77.8526C200.577 77.7368 204.05 74.3789 204.629 73.7999C205.092 73.221 205.787 73.221 206.366 73.4526C207.061 73.7999 207.871 73.7999 208.682 73.7999C209.492 73.9157 210.766 74.9578 211.114 75.8841C211.693 77.7368 213.777 77.621 214.703 77.3894C215.977 76.9263 218.408 76.8105 217.829 74.0315C217.714 73.3368 218.293 72.2947 219.335 72.7578C222.577 74.0315 225.703 70.3262 228.945 72.642C229.408 72.9894 231.145 71.9473 231.724 70.3262C227.208 70.442 223.04 69.5157 218.756 70.7894C216.093 71.7157 212.966 69.8631 210.303 71.9473C208.219 69.5157 205.44 70.9052 203.124 70.9052C198.724 70.7894 194.092 70.3262 188.998 72.4104C193.05 73.1052 194.092 76.6946 197.335 78.1999C193.282 79.0104 191.082 75.7684 187.608 75.0736C187.84 76.1157 188.071 77.1578 187.492 78.1999C187.261 78.6631 187.261 79.3578 186.682 79.1263C183.556 78.1999 180.545 79.242 177.535 79.9368C177.303 79.9368 177.071 79.821 176.377 79.4736C178.577 77.621 181.008 78.3157 183.208 77.9684C183.903 77.9684 184.829 79.0105 185.177 77.7368C185.408 77.1578 185.524 76.3473 185.292 75.9999C184.829 75.3052 184.019 75.6526 183.208 75.7684C180.777 75.9999 178.345 76.4631 175.914 75.5368C175.219 75.3052 173.366 75.8841 174.292 77.042C175.682 78.6631 173.829 79.3578 173.482 79.3578C171.166 79.9368 168.85 80.7473 166.419 80.6315C166.071 80.5157 165.377 80.6315 165.261 80.3999C162.945 76.1157 158.545 77.7368 155.071 77.2736C149.745 76.5789 144.303 76.9263 138.977 76.3473C135.619 75.9999 132.608 76.1157 129.366 76.9263C127.629 77.3894 125.661 77.2736 123.808 77.3894C122.187 77.5052 120.335 77.3894 119.756 79.5894C119.64 79.821 118.945 80.1683 118.829 80.0526C115.008 78.4315 110.84 79.7052 107.019 78.4315C106.208 78.0841 105.282 77.7368 104.703 76.6947C103.545 75.0736 101.808 74.1473 99.724 75.0736C99.2609 75.3052 98.5661 75.6525 98.3345 75.3052C96.5977 72.4104 93.124 74.3789 90.924 72.642C90.2293 72.0631 88.8398 72.4104 87.7977 72.4104C87.4503 72.4104 86.8714 72.8736 86.7556 72.7578C83.8608 69.8631 79.5766 72.0631 76.4503 70.2104C75.4082 69.5157 74.2503 71.021 72.745 69.9789C74.5977 69.7473 76.103 69.3999 75.8714 67.1999C75.7556 66.3894 76.7977 65.6946 77.8398 66.621C80.0398 68.3578 82.5872 66.8526 85.0187 67.5473C85.7135 67.7789 86.8714 67.3157 86.4082 66.042C86.1766 65.2315 86.6398 63.842 84.7872 64.3052C84.2082 64.5367 83.3977 63.842 82.5872 63.4947C84.0924 62.1052 85.3661 63.4946 86.6398 63.2631C87.2187 63.1473 88.1451 63.842 88.0293 62.5683C88.0293 61.9894 88.1451 61.0631 87.2187 61.2947C85.7135 61.642 84.7872 59.5578 83.3977 60.4841C82.9345 60.9473 82.7029 61.1788 82.124 60.8315C79.4608 59.7894 76.7977 60.3683 74.0187 60.2525C71.0082 60.021 71.3556 62.1052 71.8187 63.3789C72.3977 65.1157 71.124 65.6947 70.4292 66.2736C69.5029 66.8526 69.1556 65.4631 68.924 64.8841C68.345 63.7262 68.8082 62.9157 70.1977 62.9157C71.4714 62.9157 71.0082 61.9894 70.8924 61.4104C70.8924 60.3683 70.1977 60.3683 69.3871 60.5999C67.3029 61.1789 65.3345 60.7157 63.8292 59.0946C63.5977 58.8631 63.3661 58.5157 62.7871 58.7473C61.3977 59.3262 60.3556 60.5999 58.5029 60.5999C56.6503 60.7157 54.9135 59.7894 53.2924 60.4841C52.5977 59.5578 54.1029 58.5157 53.0608 58.0525C52.1345 57.7052 50.3977 57.5894 49.9345 58.5157C48.7766 60.8315 46.4608 60.021 44.724 60.7157C42.6398 61.7578 40.2082 62.1052 37.8924 62.4526C36.0398 62.9157 34.1871 62.3368 32.4503 61.642C31.0608 61.0631 29.5555 61.8736 28.1661 62.4526C26.4292 63.3789 24.5766 64.421 22.6082 63.1473C22.2608 63.0315 21.7976 63.7262 21.9134 63.3789C22.8397 61.0631 22.2608 57.7052 26.1976 57.4736C26.7766 57.4736 27.7029 57.0104 28.2819 55.7367C24.345 57.242 20.8713 55.2736 17.1661 55.6209C14.8503 55.9683 11.4924 55.621 8.945 54.2315C8.36606 53.9999 7.67132 53.9999 7.78711 53.1894C7.9029 52.6104 8.13447 51.9157 8.59763 51.6841C9.06079 51.3367 9.98711 50.9894 10.4503 51.9157C11.0292 53.0736 11.6082 52.7262 12.5345 52.1473C14.0397 51.2209 15.7766 51.6841 17.5134 52.0315C18.3239 52.1473 19.2503 51.9157 20.1766 51.7999C20.4082 51.6841 20.6397 51.4525 20.7555 51.221C20.8713 50.642 20.4082 50.4104 20.0608 50.4104C18.7871 50.642 17.745 49.9473 16.5871 49.7157C15.4292 49.3683 13.6924 49.3683 13.6924 48.3262C13.6924 47.2841 14.3871 45.663 16.0082 45.1999C16.2397 45.1999 16.4713 44.7368 16.7029 44.3894C14.2713 43.1157 11.9555 45.4315 9.52395 44.1578C8.59763 43.6946 9.17658 46.242 7.78711 46.5894C8.48185 47.7473 10.4503 46.4736 10.6818 48.3262C9.63974 48.2104 8.82921 47.3999 7.78711 47.5157C6.51342 47.7473 5.47131 47.7473 6.51342 46.0104C6.745 45.6631 6.745 44.621 5.70289 45.0841C4.66079 45.4315 4.31342 45.0841 3.96605 44.1578C3.03973 41.263 2.92394 41.263 0.955513 42.9999C2.11341 40.3367 2.11342 40.4525 4.89237 40.1051C6.86079 39.7578 8.71341 40.7999 10.7976 39.8736C10.2187 40.7999 9.0608 41.7262 9.87132 42.7683C10.6819 43.5789 11.8397 44.1578 13.1134 43.463C14.0397 42.9999 14.8503 43.2315 15.7766 43.1157C16.5871 43.1157 18.4397 43.6947 17.1661 41.6104C16.7029 41.0315 17.1661 40.6841 17.6292 40.5683C18.324 40.4525 18.9029 40.5683 18.5555 41.4946C18.324 42.0736 18.7871 42.5367 19.2503 42.5367C19.7134 42.5367 20.1766 42.0736 20.0608 41.4946C19.4818 39.5262 20.524 39.642 22.0292 39.8736C22.8398 39.9894 24.345 40.6841 24.4608 38.7157C24.5766 37.7894 24.8082 37.442 23.4187 37.3262C18.324 37.2104 13.345 37.5578 8.25026 38.2525C7.43973 38.3683 5.35552 39.5262 6.51342 36.7473C6.86078 35.9367 5.81868 34.7789 5.35552 35.1262C3.73447 36.1683 1.53447 34.7788 0.260787 36.5157C-0.433951 35.5894 0.492355 35.0104 0.376566 34.1999C0.260776 32.8104 -0.202368 31.7683 2.345 32.6946C4.31342 33.2736 7.32394 31.8841 9.40815 30.9578C11.7239 30.0315 14.0397 30.3788 16.2397 29.7999C17.2819 29.4525 18.5555 29.6841 19.4818 28.7578C20.1766 28.0631 20.7555 28.5262 21.4503 29.1051C23.1871 30.4946 24.8082 28.9894 26.4292 28.642C26.1976 27.7157 28.0503 27.4841 27.4713 27.021C26.3134 25.8631 23.9976 25.1683 26.7766 23.3157C27.0082 23.1999 26.4292 22.6209 26.0819 22.6209C25.1555 22.7367 24.1134 22.2736 23.7661 23.5473C23.5345 24.242 24.1134 25.2841 22.4924 25.2841C22.8397 23.4315 22.3766 21.9262 20.1766 23.3157C19.2503 24.0104 19.4819 23.0841 19.3661 22.9683C19.0187 22.6209 19.2503 22.1578 19.7134 22.1578C21.9134 21.8104 22.145 20.8841 21.3345 18.7999C20.4082 16.4841 22.4924 17.1788 24.345 16.7157C21.9134 18.7999 23.3029 19.4946 24.5766 20.1894C24.924 18.3367 27.8187 15.5578 29.7871 15.5578C30.945 15.5578 32.1029 15.0946 32.1029 14.1683C32.2187 12.7788 30.8292 13.5893 30.0187 13.4736C27.2397 13.242 24.345 13.242 21.5661 14.1683C21.4503 14.1683 21.2187 14.3999 21.1029 14.2841C19.0187 13.1262 17.1661 13.7051 15.1976 14.5157C14.2713 14.863 14.0397 13.0104 13.5766 11.9683C14.5029 12.8946 15.3134 13.242 16.3555 12.3157C17.8608 11.042 16.1239 10.5788 15.7766 9.7683C16.7029 9.18935 17.745 8.95776 18.3239 9.7683C19.0187 10.5788 19.4819 10.9262 19.945 9.65251C20.1766 9.07357 22.0292 8.84198 20.4082 7.79987C19.5976 7.22092 20.0608 6.64198 20.0608 5.94724C20.0608 5.13671 19.3661 4.55776 18.6713 5.36829C17.3976 7.10513 15.8924 6.87357 14.0397 6.4104C13.1134 6.17883 11.9555 5.83144 10.9134 6.52618C10.4503 6.75776 9.52395 6.75777 9.52395 5.83146C9.40816 5.02093 9.98711 4.32619 10.6818 4.55776C14.5029 5.2525 18.2082 4.55778 21.3345 2.70514C23.3029 1.66303 25.6187 3.1683 27.0082 1.19987C26.3134 0.157768 25.1555 1.08408 24.1134 0.505127C23.9976 -0.53698 25.8503 -0.0738144 25.5029 -1.46329C25.3871 -1.46329 25.1555 -1.69488 24.924 -1.57909C23.7661 -1.11593 22.2608 -1.2317 21.4503 0.0419769C20.8713 0.968292 20.0608 0.0419693 19.945 -0.073822C19.0187 -1.3475 18.2082 -1.00013 17.2818 0.0419769C17.1661 0.0419769 16.7029 0.736702 16.3555 0.157761C16.3555 0.0419693 17.1661 -0.305397 17.1661 -0.652763C17.2818 -1.81066 14.3871 -0.305405 15.6608 -2.15804C16.2397 -3.20014 17.1661 -1.23172 18.2082 -1.57909C19.0187 -1.81067 19.3661 -2.27381 19.0187 -2.85276C18.5555 -3.89487 18.324 -4.47382 19.8292 -4.93697C21.2187 -5.40013 21.7976 -4.93698 22.6082 -4.12645C23.4187 -3.20013 23.4187 -3.20013 23.9976 -4.35803C24.6924 -5.63171 25.6187 -5.05276 26.6608 -4.93697C26.7766 -3.77908 24.5766 -4.01067 25.2713 -2.96856C26.0818 -1.46329 27.5871 -2.85277 28.8608 -2.73698C30.5976 -2.38961 28.9766 -3.77908 29.0924 -4.35803C29.9029 -6.44224 32.1029 -5.97908 33.4924 -6.09487C37.7766 -6.32645 41.945 -8.0633 46.345 -7.36856C46.6924 -7.25278 47.3871 -7.71592 47.5029 -8.06329C47.8503 -8.87382 46.8082 -8.41067 46.6924 -8.75803C45.7661 -10.2633 48.1977 -9.1054 47.9661 -10.3791C45.4187 -10.1475 43.1029 -10.8422 40.4398 -10.3791C37.545 -9.91592 34.4187 -10.0317 31.524 -10.1475C29.0924 -10.3791 27.3555 -12.4633 27.0082 -14.4317C26.8924 -15.937 29.2082 -17.3265 30.8292 -18.0212C31.4082 -18.137 32.7977 -18.2528 33.0292 -18.137C36.3871 -14.4317 37.545 -19.0633 39.6292 -19.9896C39.9766 -20.1054 40.2082 -20.5686 40.5556 -20.5686C43.4503 -21.0317 46.345 -21.4949 49.2398 -21.8423C48.545 -23.2317 47.5029 -24.6212 46.8082 -26.1265C45.6503 -28.5581 46.2292 -30.758 48.8924 -31.4528C51.4398 -32.0317 53.7556 -34.116 56.7661 -32.8423C57.4608 -32.4949 58.3871 -33.0738 59.3135 -33.4212C60.2398 -33.7686 61.6292 -34.4633 62.4398 -33.7686C65.2187 -31.4528 64.2924 -34.1159 64.7556 -35.0423C62.324 -35.9686 59.6608 -33.8844 57.5766 -36.0844C56.5345 -34.6949 55.0292 -35.1581 53.7556 -35.1581C51.9029 -35.1581 50.745 -36.4317 49.5871 -37.5896C49.3555 -37.8212 49.5871 -38.4002 50.1661 -38.4002C50.3977 -38.4002 50.745 -37.937 50.8608 -38.0528C52.1345 -38.9791 54.7977 -37.8212 54.6819 -39.7896C54.5661 -41.2949 52.2503 -40.4844 50.8608 -40.6002C50.2819 -40.6002 49.7029 -40.4844 49.124 -40.4844C48.1977 -40.3686 47.5029 -40.4844 47.0398 -41.4107C46.6924 -41.9896 47.0398 -42.5686 47.5029 -42.916C48.3135 -43.6107 49.0082 -43.0317 49.5871 -42.4528C51.324 -40.4844 53.1766 -43.1475 54.9135 -42.337C55.2608 -44.0738 56.8819 -45.2317 57.4608 -46.6212C58.7345 -49.516 60.7029 -48.7054 62.4398 -48.2423C64.4082 -47.5475 66.3766 -47.316 68.345 -46.3896C69.6187 -45.8107 71.9345 -46.9686 73.6714 -47.7791C74.2503 -48.1265 73.6714 -49.1686 72.745 -49.516C71.8187 -49.9791 71.0082 -49.4002 70.1977 -49.4002C67.0714 -49.1686 64.6398 -51.2528 61.5135 -51.3686C59.1977 -51.4844 57.1135 -51.716 55.2608 -49.4002C55.3766 -54.7265 50.6292 -57.0423 48.6608 -60.9791C49.0082 -61.0949 49.2398 -61.3265 49.3555 -61.3265C51.5556 -59.7054 51.5556 -59.5896 54.4503 -60.1686C56.7661 -60.7475 58.6187 -58.7791 60.8187 -59.4739C61.6293 -59.7054 63.3661 -58.316 62.9029 -60.8633C62.7871 -61.3265 64.1766 -61.4423 64.7556 -61.2107C66.145 -60.7476 67.4187 -61.2107 68.924 -61.2107C67.7661 -63.0633 65.6819 -62.3686 64.0608 -62.716C60.4713 -63.6423 56.6503 -63.2949 53.0608 -64.2212C51.0924 -64.8002 51.324 -68.1581 48.7766 -66.7686C48.8924 -67.0002 49.0082 -67.4633 49.0082 -67.4633C50.6292 -67.3475 48.1977 -69.5476 50.3977 -69.5476C57.1135 -69.4318 63.7135 -71.2844 70.4292 -69.6633C71.2398 -69.5475 71.2398 -69.6633 71.9345 -71.4002C73.2082 -71.2844 72.1661 -69.0844 73.5556 -69.4318C75.7556 -69.8949 76.5661 -71.7475 77.3766 -73.4844C75.1766 -76.3791 72.2819 -74.5265 69.7345 -74.6423C69.5029 -74.6423 69.1556 -74.5265 69.0398 -74.2949C67.6503 -72.4423 65.2187 -71.516 62.6713 -72.0949C60.8187 -72.4423 58.9661 -73.0212 56.9977 -72.6739C56.5345 -73.9476 59.1977 -73.2528 58.1556 -74.9897C56.7661 -77.537 55.145 -74.7581 53.524 -75.6844C54.7977 -76.7265 56.4187 -77.0739 57.8082 -76.8423C59.6608 -76.4949 60.7029 -77.3054 61.5135 -78.6949C63.7135 -81.8212 66.724 -84.0212 69.5029 -86.5686C69.9661 -86.916 70.7766 -86.916 70.545 -87.7265C69.6187 -90.6212 71.7029 -88.537 72.1661 -89.116C73.0924 -87.8423 70.4292 -87.8423 71.5871 -86.5686C72.5135 -85.4107 73.324 -86.1055 74.2503 -86.5686C76.1029 -87.4949 76.4503 -85.8739 77.2608 -84.8318C77.1065 -84.6774 76.9521 -84.4844 76.7977 -84.2528C74.7135 -82.516 72.1661 -81.937 69.5029 -82.1686C68.6924 -82.2844 67.9977 -82.1686 67.1871 -82.2844C65.4503 -82.6318 65.7977 -81.1265 65.6819 -80.316C65.5661 -79.1581 66.724 -79.2739 67.6503 -79.1581C70.6608 -78.9265 73.7871 -78.6949 76.5661 -79.1581C79.1135 -79.6212 81.1977 -77.7686 83.6293 -78.9265C84.903 -79.6212 86.1766 -78.9265 86.524 -76.8423C86.7556 -79.737 88.6082 -78.8107 89.9977 -78.8107C93.703 -78.9265 97.524 -79.2739 101.113 -78.6949C104.124 -78.116 106.903 -80.8949 110.029 -78.6949C110.492 -78.3476 112.692 -80.8949 114.777 -80.6633C115.703 -78.9265 117.44 -79.3897 118.945 -79.3897C121.492 -79.2739 124.156 -78.5791 126.471 -80.316C127.166 -80.8949 127.282 -80.4318 127.629 -79.8528C128.092 -78.9265 128.787 -78.3476 129.482 -77.6528C129.945 -77.1897 130.524 -76.4949 130.987 -76.9581C131.45 -77.4212 131.566 -78.2318 131.798 -78.8107C132.029 -79.6212 131.798 -79.9686 131.103 -80.0844C130.524 -80.2002 129.598 -79.8528 129.945 -80.8949C130.177 -81.7055 130.756 -81.3581 131.335 -81.2423C135.04 -80.6633 138.861 -81.0107 142.566 -81.0107C145.924 -81.1265 149.282 -81.5897 152.64 -81.5897C154.84 -81.5897 157.735 -81.0107 159.935 -82.9791C160.977 -83.9054 162.945 -85.7581 164.335 -82.9791C164.798 -82.0528 165.261 -82.6318 165.724 -82.8634C166.766 -83.3265 166.303 -84.137 166.187 -84.9476C166.071 -85.7581 165.84 -85.9897 164.914 -86.1055C162.019 -86.337 159.124 -85.7581 156.692 -84.4844C154.84 -83.3265 152.871 -85.1791 151.366 -83.5581C151.25 -83.4423 150.903 -83.7897 150.787 -83.7897C149.282 -83.6739 148.356 -84.6002 148.471 -86.1055C148.471 -86.2213 148.471 -86.337 148.471 -86.4528C148.471 -87.4949 145.924 -86.4528 146.735 -88.1897C147.314 -89.4633 148.587 -88.4213 149.398 -88.6528C150.44 -89.0002 151.366 -89.2318 152.408 -89.3476C157.04 -89.9265 161.671 -89.4634 166.303 -90.1581C172.208 -91.0844 178.229 -90.9686 184.135 -90.8528C184.945 -90.737 185.524 -90.3897 185.987 -89.8107C185.408 -89.6949 184.829 -89.3476 184.829 -88.8844C185.177 -86.1055 183.092 -85.9897 181.356 -85.9897C177.419 -86.1055 173.366 -84.8318 169.314 -85.9897C168.735 -86.1055 167.345 -85.4107 167.345 -84.137C167.345 -82.8633 168.387 -82.7476 169.082 -82.9791C171.861 -83.5581 174.987 -82.1686 177.535 -84.2528C177.882 -84.4844 178.345 -84.8318 178.577 -84.716C182.514 -82.2844 186.45 -84.8318 190.271 -84.9476C192.471 -85.0634 194.671 -84.3686 196.756 -85.4107C197.103 -85.6423 197.798 -85.5265 198.261 -85.2949C200.345 -84.137 200.345 -84.8318 202.661 -84.9476C204.861 -84.9476 207.756 -87.3791 209.608 -83.7897C210.071 -82.8634 211.229 -83.4423 211.808 -84.2528C212.735 -85.8739 214.356 -85.9897 215.398 -85.0633C217.945 -82.7476 220.377 -84.2528 222.693 -85.1791C224.198 -85.7581 225.819 -86.337 227.903 -86.5686C226.166 -87.9581 225.587 -89.9265 223.387 -90.2739C222.808 -90.3897 221.65 -90.5055 222.345 -91.8949C222.693 -92.7055 222.693 -94.4423 223.85 -93.8634C227.787 -92.2423 231.377 -95.0212 235.198 -94.3265C237.514 -93.9791 240.061 -94.9055 241.219 -90.9686C242.029 -93.0528 242.145 -95.2528 244.345 -93.2844C244.808 -92.7055 245.387 -93.4002 245.85 -93.7476C247.008 -94.7897 248.861 -94.9055 249.556 -94.3265C251.524 -92.5897 252.914 -93.6318 254.419 -94.5581C255.461 -95.137 256.619 -95.0212 257.661 -94.9055C262.215 -94.8283 266.77 -94.7897 271.324 -94.7897C274.103 -94.7897 275.029 -92.937 275.84 -91.0844C271.787 -89.8107 267.619 -91.0844 263.798 -91.5476C260.324 -92.0107 257.661 -89.3476 254.419 -90.8528C255.808 -89.9265 257.198 -89.0002 258.935 -89.116C259.977 -89.116 260.903 -88.8844 261.366 -87.8423C261.829 -87.0318 262.177 -86.5686 262.871 -87.4949C264.608 -89.9265 266.808 -89.2318 268.777 -88.1897C270.282 -87.2633 272.019 -87.0318 273.524 -86.8002C275.84 -86.5686 278.272 -87.1476 277.461 -90.737C282.093 -89.5792 286.493 -88.4212 290.777 -87.3791C291.703 -87.2633 291.935 -88.8844 293.208 -88.4213C295.756 -87.7265 300.156 -88.0739 303.05 -88.6528C304.093 -88.7686 305.366 -89.6949 306.061 -87.8423C306.177 -87.6107 307.335 -86.2212 308.029 -87.9581C308.724 -89.3476 308.956 -87.4949 309.419 -87.6107C310.461 -87.7265 312.198 -85.0633 312.429 -88.537C312.545 -89.6949 313.935 -89.0002 314.282 -88.4213C314.977 -87.1476 316.019 -86.5686 317.177 -87.1476C318.219 -87.7265 317.64 -88.8844 317.177 -89.8107C316.598 -91.0844 317.524 -92.0107 318.566 -92.4739C319.724 -92.937 320.072 -92.0107 320.419 -91.2002C320.766 -90.6212 320.998 -89.2318 322.04 -90.0423C322.966 -90.8528 321.924 -91.5476 321.577 -92.3581C324.124 -90.8528 327.714 -91.316 329.451 -87.8423C327.366 -86.6844 325.861 -88.1897 324.124 -88.8844C323.661 -89.0002 322.85 -89.6949 322.966 -88.6528C323.082 -87.7265 321.345 -87.7265 322.387 -86.8002C324.008 -85.5265 331.882 -84.8318 333.503 -85.9897C333.966 -86.337 334.545 -86.6844 334.429 -87.7265C332.924 -87.0318 331.766 -87.8423 330.261 -88.6528C331.535 -89.4634 334.198 -88.3055 333.503 -91.0844C333.387 -91.5476 333.85 -91.6634 334.314 -91.7791C337.903 -91.8949 341.493 -91.4318 344.966 -90.6212C345.314 -90.5055 345.777 -90.0423 345.777 -89.4634C345.777 -88.4212 346.356 -87.9581 346.819 -88.4213C349.135 -90.6213 352.145 -90.9686 355.04 -91.2002C357.703 -91.4318 360.366 -90.0423 363.145 -91.0844C363.377 -91.2002 363.956 -90.1581 364.419 -89.6949C363.608 -88.4212 362.103 -90.2739 361.524 -88.8844C361.061 -88.0739 362.451 -85.8739 363.377 -85.8739C369.051 -85.8739 374.724 -87.3791 380.398 -86.6844C381.324 -86.5686 381.556 -87.3791 382.019 -87.8423C383.872 -89.9265 385.724 -89.8107 386.419 -87.2634C386.766 -86.2213 386.998 -86.4528 387.808 -86.4528C389.777 -86.4528 389.43 -88.0739 389.777 -89.8107C390.472 -87.8423 392.556 -87.7265 393.135 -87.8423C395.566 -88.1897 397.303 -87.1476 399.156 -86.2212C400.777 -85.2949 402.282 -85.4107 403.787 -86.8002C404.714 -87.7265 405.872 -87.9581 407.261 -87.7265C409.808 -87.2634 412.356 -87.2634 415.366 -89.2318C414.556 -87.3791 413.861 -85.7581 416.293 -86.337C418.029 -86.916 418.493 -85.1791 419.766 -84.3686C420.577 -85.8739 419.998 -87.0318 419.187 -88.1897C422.777 -88.0739 425.324 -85.2949 428.798 -85.5265C429.956 -85.5265 431.23 -85.2949 432.387 -85.9897C433.545 -86.8002 434.472 -86.337 435.745 -85.7581C436.672 -85.2949 438.177 -83.3265 438.987 -86.2212C439.219 -87.1476 440.03 -86.4528 440.377 -86.1055C441.072 -85.2949 441.651 -84.4844 441.998 -83.5581C443.387 -80.7791 445.703 -80.8949 448.251 -81.2423C451.493 -81.7054 454.387 -82.6318 457.051 -84.4844C456.472 -85.7581 455.082 -84.4844 454.503 -85.7581C456.587 -88.1897 459.83 -87.8423 462.493 -88.7686C462.608 -88.8844 463.072 -88.537 463.187 -88.3055C463.882 -87.2634 461.451 -87.7265 462.261 -86.1055C463.072 -84.137 461.335 -85.5265 460.756 -85.4107C459.714 -85.1791 458.208 -85.4107 457.977 -83.7897C457.63 -81.7055 459.482 -82.9791 460.293 -82.4002C460.756 -82.0528 461.682 -82.2844 462.377 -82.1686C462.956 -82.1686 463.535 -82.1686 464.461 -82.1686C462.84 -80.0844 460.987 -80.6633 459.482 -80.7791C458.093 -80.9335 456.78 -80.9335 455.545 -80.7791C454.503 -80.6633 452.998 -80.6634 454.272 -78.8107C454.503 -78.5791 454.156 -78.116 454.156 -77.6528C454.04 -77.0739 452.187 -77.0739 453.461 -76.0318C454.503 -75.1054 455.43 -76.1476 455.893 -76.8423C456.356 -77.4212 456.935 -77.7686 457.282 -77.4212C459.251 -74.7581 459.714 -76.6107 460.987 -78.2318C462.724 -80.4318 465.503 -78.8107 467.124 -78.116C469.44 -76.9581 471.409 -77.0739 473.377 -77.7686C475.345 -78.4633 476.503 -78.4633 476.735 -75.4528C478.356 -78.8107 479.745 -77.8844 481.598 -76.4949C483.103 -75.2212 484.84 -74.2949 486.924 -74.8739C487.735 -75.1054 488.314 -75.2212 488.082 -76.2634C487.851 -76.6107 487.387 -77.0739 488.198 -77.3055C489.009 -77.537 489.587 -77.0739 489.703 -76.6107C490.398 -73.2528 493.293 -75.1054 493.987 -75.5686C497.461 -77.8844 501.051 -79.2739 505.103 -79.6212C505.335 -79.737 505.566 -79.8528 505.798 -79.9686C504.64 -81.3581 503.251 -80.7791 501.63 -80.2002C503.019 -81.7055 505.451 -82.1686 506.493 -81.0107C507.651 -79.737 508.23 -79.737 509.272 -81.0107C509.619 -81.3581 510.43 -81.3581 511.009 -81.3581C512.861 -81.3581 514.714 -80.5476 516.566 -82.0528C516.914 -82.4002 518.651 -82.1686 519.461 -80.8949C520.272 -79.6212 524.672 -79.3897 525.714 -80.316C526.524 -81.0107 526.524 -81.0107 526.293 -83.2107C527.682 -80.4318 529.303 -79.3897 531.851 -81.1265C532.43 -81.4739 534.282 -81.7055 534.282 -79.8528C534.398 -78.2318 535.208 -78.3476 536.135 -79.1581C538.682 -81.3581 541.114 -81.4739 543.777 -79.737C545.166 -78.8107 546.556 -79.3897 547.945 -79.6212C548.524 -79.6212 548.987 -80.316 549.566 -79.6212C549.914 -79.1581 549.682 -78.8107 549.335 -78.6949C548.756 -78.4633 548.872 -77.0739 547.83 -77.6528C546.209 -78.6949 545.63 -78.2318 545.051 -76.4949C544.472 -74.6423 545.977 -74.5265 546.787 -73.9476C547.366 -73.4844 547.945 -73.137 548.409 -72.3265C542.851 -70.1265 535.788 -73.2528 531.04 -67.6949C532.43 -67.3475 533.935 -67.116 534.861 -67.9265C535.787 -68.737 537.293 -68.6212 537.524 -68.5054C541.23 -65.9581 545.63 -69.316 549.451 -67.116C550.377 -66.537 550.956 -67.8107 551.651 -68.2739C553.503 -59.937 556.166 -68.8528 558.366 -67.9265C558.945 -66.7686 556.745 -65.4949 558.714 -64.5686C558.714 -64.5686 558.83 -64.337 558.714 -64.337C557.093 -62.9475 556.166 -61.4423 556.514 -59.0107C556.63 -58.4318 555.124 -57.6212 556.745 -56.6949C557.324 -56.3475 557.44 -55.1896 557.787 -54.3791C556.861 -54.2633 556.282 -53.5686 555.124 -53.5686C551.188 -53.916 547.251 -54.2633 543.314 -53.916C541.693 -53.8002 540.419 -53.4528 538.914 -53.1054C542.966 -49.1686 547.83 -51.3686 552.23 -51.0212C552.924 -51.0212 553.503 -51.137 554.082 -50.6739C555.703 -49.4002 557.093 -49.4002 558.366 -51.2528C558.714 -51.8317 559.64 -52.1791 560.103 -51.6002C560.798 -50.6739 559.987 -50.5581 559.177 -50.5581C559.061 -50.5581 558.714 -50.3265 558.714 -50.2107C557.787 -46.1581 554.545 -46.5054 551.419 -46.3896C550.609 -46.3896 549.914 -47.316 549.219 -46.3896C548.061 -44.8844 546.903 -43.2633 545.398 -41.8738C545.051 -41.5265 545.861 -40.8317 546.209 -41.1791C547.135 -42.337 548.756 -40.8317 549.798 -42.4528C550.84 -44.0738 551.072 -40.9475 552.461 -41.6423C551.072 -45.2317 556.051 -42.4528 555.472 -45.8107C556.398 -44.3054 554.893 -43.8423 555.703 -43.1475C556.398 -42.6844 556.861 -43.2633 557.324 -43.7265C557.788 -44.1896 558.482 -44.537 558.945 -44.0738C560.798 -42.1054 563.577 -42.5686 565.43 -42.8002C567.745 -43.2633 567.745 -41.0633 569.366 -40.9475C571.103 -40.716 572.84 -40.7159 574.577 -40.4844C577.703 -40.137 580.714 -41.6423 583.724 -40.3686C583.956 -40.2528 584.303 -40.3686 584.419 -40.6002C586.388 -43.0317 589.282 -40.4844 591.482 -41.9896C591.945 -42.337 591.945 -41.4107 592.177 -40.9475C592.409 -40.2528 592.409 -39.7896 591.598 -39.558C590.672 -39.3265 589.861 -38.9791 589.051 -39.7896C588.356 -38.7475 586.388 -43.1475 586.388 -39.2107C584.303 -39.7896 582.451 -38.4002 580.366 -38.6317C578.63 -38.8633 577.009 -38.2844 576.661 -36.4317C576.314 -34.1159 577.356 -32.8423 580.714 -34.0002C578.63 -32.2633 577.009 -32.0317 575.388 -31.6844C574.577 -31.5686 573.766 -31.5686 573.651 -30.758C573.651 -29.6002 574.693 -29.8317 575.388 -29.4844C576.661 -28.7896 577.935 -29.6002 579.209 -29.2528C579.788 -29.137 580.482 -29.9475 580.83 -29.137C581.061 -28.4422 580.482 -27.9791 579.903 -27.5159C579.093 -26.937 578.514 -26.358 577.24 -26.2422C580.83 -23.1159 584.766 -23.4633 588.703 -23.6949C589.63 -23.8107 589.63 -23.1159 589.745 -22.537C589.745 -21.6107 590.556 -21.2633 591.135 -21.3791C592.524 -21.4949 591.482 -22.1896 591.251 -22.7686C592.872 -22.8844 594.261 -23.8107 595.882 -23.2317C596.461 -23.0002 597.156 -22.7686 597.503 -22.3054C599.472 -19.6423 602.135 -18.4844 605.261 -19.6423C608.156 -20.6843 609.545 -18.4844 611.514 -17.2107C609.198 -17.7896 607.924 -16.9791 607.114 -14.7791C606.072 -12.1159 605.03 -15.1265 603.988 -15.1265C603.64 -14.3159 605.03 -12.2317 602.135 -13.5054C599.588 -14.5475 596.461 -13.9686 593.566 -14.0843C592.756 -14.0843 591.366 -14.5475 591.135 -13.0422C590.787 -11.6528 592.177 -11.4212 593.103 -10.958C593.566 -10.7264 594.145 -10.7265 594.724 -10.4949C593.798 -9.1054 591.482 -10.6107 591.019 -8.41066C593.335 -8.29488 595.766 -8.29488 597.966 -7.94751C599.24 -7.71593 601.556 -8.29488 600.745 -5.51592C600.282 -3.77908 600.514 -4.01066 598.777 -4.35803C597.503 -4.7054 596.23 -5.16856 594.377 -4.7054C589.861 -3.54751 586.966 0.273544 582.682 1.31565C583.03 -1.3475 583.03 -1.3475 585.693 -1.46329C586.619 -1.46329 587.777 -1.11592 587.893 -2.85276C588.009 -4.47382 587.082 -4.82118 586.04 -4.82118C583.261 -4.82118 580.366 -4.58961 577.472 -4.47382C577.009 -4.47382 576.43 -4.12646 576.545 -3.89487C577.935 -1.57909 575.503 0.0419769 575.619 2.0104C575.619 2.58935 574.693 3.39987 575.851 3.74724C576.661 3.97882 577.356 3.39988 577.588 2.70514C577.819 1.43146 578.977 1.19987 580.251 0.273552C578.861 3.74724 580.945 3.51566 582.914 3.39987C584.419 3.28408 586.04 2.93671 587.545 3.16829C589.861 3.51566 593.219 3.05251 592.293 7.33672C594.261 6.75777 596.345 6.98934 596.345 4.21039C596.345 3.63145 597.503 1.77882 599.24 2.93671C600.977 3.97882 602.019 2.12619 603.061 1.43145C604.335 0.73671 602.714 0.0419769 602.251 -0.536972C601.556 -1.46329 602.251 -2.15803 602.598 -2.62119C603.177 -3.20013 603.987 -2.73698 604.451 -2.15804C605.84 -0.421188 605.261 1.89461 603.061 2.93671C602.019 3.39987 601.903 4.32619 601.672 5.02094C601.44 6.06304 602.482 5.48408 602.945 5.71566C603.177 5.83145 603.524 6.17883 603.524 6.17883C603.409 6.5262 603.177 6.98934 602.945 7.10513C600.166 7.79987 597.735 9.42093 594.956 9.53672C592.061 9.65251 588.935 7.45251 586.156 10.463C586.04 10.5788 582.566 11.7367 581.409 9.18935C581.293 8.95776 580.251 8.84197 580.135 8.84197C578.282 12.4314 575.619 8.72619 573.419 9.53672C572.956 9.7683 571.566 10.2314 570.988 8.84197C570.872 8.49461 570.177 8.14724 570.061 8.6104C569.251 12.4314 566.124 10.2315 564.04 11.2736C566.124 11.3894 566.935 14.863 569.714 13.0104C570.293 12.663 571.103 12.5472 571.798 12.663C574.577 13.3578 577.472 13.5893 580.366 13.242C581.409 13.1262 582.219 13.3578 582.682 14.5157C581.293 14.5157 580.251 15.9051 578.861 14.5157C578.166 13.9367 577.588 14.863 577.124 15.3262C576.777 15.7894 576.43 16.2525 576.777 16.7157C577.124 17.2946 577.819 17.1788 578.398 16.9472C579.787 16.3683 580.714 18.5683 582.682 16.7157C580.945 20.0736 578.63 19.0315 576.777 19.3788C576.082 19.3788 575.156 19.1472 575.156 20.1894C575.272 21.1157 576.082 20.7683 576.661 20.8841C578.861 20.8841 580.945 20.9999 583.03 21.1157C580.598 22.9683 577.472 23.8946 574.461 24.5894C573.651 24.8209 573.419 25.6315 573.535 26.3262C573.766 27.3683 572.724 27.9473 572.493 28.7578C572.145 29.7999 571.451 29.1051 571.103 28.8736C570.293 28.4104 571.103 28.1788 571.335 27.9473C571.721 27.5613 572.107 27.2139 572.493 26.9052C571.566 26.0946 573.535 25.2841 572.609 24.7052C571.798 24.1262 570.988 24.8209 570.64 25.5157C569.714 27.2525 567.977 26.7894 565.661 26.9052C568.787 28.1788 569.019 31.1894 571.335 31.8841C565.661 33.042 562.651 38.7157 556.861 39.5262C558.019 40.9157 559.872 39.4104 560.451 41.4946C559.293 41.9578 558.019 42.0736 556.745 41.7262C555.472 41.263 554.43 41.7262 553.388 42.1894C551.651 42.9999 550.03 42.8841 548.177 41.9578C545.861 40.7999 543.43 42.0736 540.998 42.1894C535.324 42.421 529.882 44.2736 524.208 44.2736C522.587 44.2736 520.851 44.8525 519.23 45.1999C518.651 45.3157 517.493 45.0841 517.84 46.242C518.072 46.9368 518.766 47.5157 519.577 47.0525C520.156 46.5894 520.851 46.4736 521.545 46.7052C522.009 47.6315 520.04 47.2841 520.735 48.0946C521.082 48.5578 521.777 49.1367 522.472 48.3262C523.398 47.2841 523.861 47.7473 524.556 48.6736C525.83 50.4104 523.63 49.3683 523.63 50.0631C523.514 53.0736 519.924 52.3788 518.998 54.4631ZM347.745 75.1894C345.314 73.7999 343.229 73.4526 340.566 73.9157C338.366 74.3789 335.819 75.1894 333.735 74.7262C326.44 73.4525 319.261 74.2631 312.082 74.0315C306.64 73.9157 301.314 74.0315 295.872 73.7999C289.85 73.4526 283.945 74.842 277.924 73.7999C276.419 73.5683 274.335 72.7578 273.64 72.9894C269.703 75.0736 265.766 73.221 261.945 73.4526C257.082 73.9157 252.219 74.1473 247.356 74.1473C243.187 74.0315 238.903 75.6526 234.619 74.6105C233.114 74.2631 233.461 75.6526 232.766 76.2315C271.093 77.3894 309.419 77.1578 347.745 75.1894ZM492.83 50.9894C492.83 50.7578 493.061 50.5262 493.524 50.2947C493.37 50.5262 493.138 50.7578 492.83 50.9894ZM494.798 52.2631C496.419 53.0736 498.272 51.6841 500.124 52.0315C500.703 52.1473 500.819 50.9894 500.935 49.9473C499.661 50.642 498.503 50.9894 497.461 49.1368C499.43 50.2947 501.166 49.3683 502.787 49.5999C504.061 49.7157 502.787 47.5157 503.598 48.442C504.64 49.7157 506.03 49.5999 507.072 50.4104C508.461 51.4525 510.082 52.4946 509.966 53.9999C509.851 55.9683 510.777 56.5473 512.166 57.1262C512.977 56.6631 512.051 54.9262 513.672 54.9262C514.598 54.9262 515.872 56.1999 516.335 54.2315C514.714 53.1894 512.282 53.5367 510.893 51.5683C513.324 52.842 516.103 50.0631 518.419 52.4946C518.882 52.9578 519.461 52.4947 519.693 52.0315C520.272 51.221 520.735 50.642 521.777 50.642C522.356 50.7578 522.935 50.642 522.935 49.9473C522.935 49.2525 522.24 49.2525 521.777 49.2525C518.766 48.6736 515.756 48.0946 512.745 47.5157C511.587 47.2841 510.198 47.8631 509.966 48.3262C508.461 51.3367 507.072 48.9052 506.145 48.0946C504.756 46.9367 503.366 46.5894 501.63 46.821C498.619 47.2841 495.84 48.3262 492.598 47.7473C490.861 47.5157 488.082 48.5578 487.966 51.5683C489.935 51.9157 491.787 51.7999 492.83 50.9894C492.83 51.5683 494.451 52.0315 494.798 52.2631ZM335.124 81.2104C336.282 80.3999 338.598 81.442 338.482 80.1684C338.366 78.4315 336.166 79.0105 334.777 78.8947C334.545 78.8947 334.314 79.0105 334.198 79.0105C329.566 79.1262 324.819 78.8947 320.187 79.3578C316.135 79.821 311.966 78.8947 307.914 80.0526C306.061 80.6315 306.872 81.3263 307.335 82.1368C307.914 83.0631 308.956 82.9473 309.882 82.7157C312.893 82.021 315.903 82.7157 318.914 83.1789C320.072 83.2947 321.114 83.4105 321.808 82.5999C323.314 80.7473 325.398 80.7473 327.251 81.0947C329.914 81.5578 332.577 80.5157 335.124 81.2104ZM48.4292 48.5578C43.2187 48.6736 38.7029 49.5999 34.0713 49.1368C33.724 49.021 32.2187 49.1368 32.3345 50.2947C32.4503 51.5683 33.6082 51.4525 34.4187 51.3368C36.0398 51.1052 37.3134 51.1051 37.4292 53.3052C37.4292 53.6525 38.0082 57.3578 39.8608 54.1157C40.2082 53.5367 40.6713 53.6525 41.1345 53.9999C43.5661 55.2736 46.1134 54.1157 48.545 54.1157C48.8924 54.1157 49.3556 54.1157 49.4713 53.5367C49.7029 52.842 49.0082 52.842 48.6608 52.4946C47.3871 51.4525 45.8819 51.2209 44.2608 51.6841C43.5661 51.7999 42.6398 51.9157 42.6398 50.9894C42.6398 50.2946 43.4503 50.5262 44.0292 50.642C45.6503 50.9894 46.924 50.1789 48.4292 48.5578ZM253.377 -90.8528C248.629 -90.5055 243.998 -90.1581 239.366 -89.9265C238.208 -89.8107 236.703 -89.2318 237.05 -91.6633C237.166 -93.2844 235.082 -93.1686 234.271 -93.0528C232.187 -92.8213 234.619 -92.2423 234.387 -91.6633C234.156 -91.2002 234.04 -90.9686 233.693 -90.737C232.535 -90.3897 232.187 -89.5792 232.65 -88.4213C233.114 -87.2634 234.04 -87.3791 235.314 -87.2634C238.787 -87.1476 242.261 -87.9581 245.85 -87.7265C248.398 -87.6107 252.219 -85.9897 253.377 -90.8528ZM393.482 81.7894C396.145 81.7894 396.377 80.6315 396.377 78.1999C396.377 75.421 394.756 77.1578 394.061 76.6947C391.629 75.421 392.672 77.8526 392.093 78.4315C390.819 79.7052 390.819 75.0736 389.314 77.9684C388.851 78.8947 387.461 79.242 386.303 79.0105C384.682 78.6631 383.061 79.1262 381.44 79.4736C380.745 79.5894 379.587 79.1263 379.587 80.2841C379.587 81.442 380.977 81.2104 381.556 81.3262C385.493 81.9052 389.545 81.9052 393.482 81.7894ZM377.851 82.021C377.387 80.7473 375.651 80.3999 376.345 79.0105C376.577 78.5473 377.966 78.7789 377.387 77.7368C376.924 77.042 376.114 77.3894 375.419 77.3894C373.566 77.5052 371.598 77.5052 369.745 77.7368C368.935 77.8526 367.777 77.5052 367.314 78.4315C366.619 79.9368 369.166 78.7789 368.819 80.5157C367.429 79.7052 366.04 79.9368 364.651 80.0526C363.261 80.1683 363.608 81.6736 363.84 81.6736C366.503 81.3262 364.303 83.1789 365.114 84.1052C367.198 82.1368 370.672 84.1052 372.64 81.2104C372.987 80.7473 373.335 81.2104 373.219 81.6736C372.756 83.4104 374.145 82.5999 374.608 82.5999C375.651 82.3684 376.577 81.5578 377.851 82.021ZM537.293 -63.5265C536.251 -59.5897 536.366 -59.1265 539.145 -59.2423C541.924 -59.2423 544.935 -59.4739 547.135 -60.2844C549.682 -61.3265 551.535 -61.3265 553.851 -60.7475C554.545 -60.6318 555.356 -60.9791 555.472 -61.6739C555.703 -62.716 554.545 -62.9476 554.082 -62.9476C552.345 -62.6002 550.493 -63.2949 548.64 -62.8318C547.251 -62.4844 543.893 -61.0949 545.745 -65.6107C542.735 -64.337 540.419 -61.9054 537.293 -63.5265ZM354.808 82.2525C357.472 84.6841 360.829 83.7578 363.029 80.1684C363.377 79.5894 364.651 79.1262 363.608 78.3157C362.914 77.7368 361.64 77.1578 360.945 78.1999C358.977 81.2104 356.314 81.0947 353.303 80.5157C352.261 80.2841 350.756 80.9789 349.829 81.6736C349.482 81.9052 350.293 83.0631 350.872 83.642C351.798 84.5683 353.187 84.6842 354.461 84.4526C355.619 84.1052 354.114 83.0631 354.808 82.2525ZM496.882 -71.1686C498.156 -71.2844 498.735 -71.2844 499.314 -71.2844C500.124 -71.4002 501.282 -71.516 500.935 -72.5581C500.703 -73.4844 499.545 -74.4107 498.619 -74.0633C496.535 -73.3686 494.103 -74.4107 492.135 -72.9054C491.556 -72.5581 490.745 -72.6739 490.398 -73.6002C490.282 -73.9476 490.282 -74.5265 489.472 -74.0633C487.272 -72.6739 484.956 -71.8633 482.409 -72.5581C481.945 -72.6739 481.598 -72.4423 481.482 -72.0949C481.251 -71.6318 481.598 -71.4002 482.061 -71.2844C482.64 -71.1686 483.219 -70.937 483.798 -70.937C488.314 -70.2423 492.945 -71.516 496.882 -71.1686ZM424.63 -78.2318C426.019 -78.0002 426.945 -77.8844 427.756 -77.6528C432.966 -76.4949 438.293 -76.9581 443.619 -77.0739C444.314 -77.0739 445.703 -76.8423 446.051 -78.2318C444.545 -78.5791 444.545 -80.4318 443.156 -81.0107C441.998 -77.7686 439.451 -79.737 437.482 -79.3897C434.935 -79.0423 432.156 -78.3476 429.724 -79.0423C427.872 -79.5055 426.598 -79.2739 424.63 -78.2318Z" fill="white"/>
</svg>
